<?xml version="1.0" standalone="no"?>
<!DOCTYPE svg PUBLIC "-//W3C//DTD SVG 20010904//EN"
 "http://www.w3.org/TR/2001/REC-SVG-20010904/DTD/svg10.dtd">
<svg version="1.0" xmlns="http://www.w3.org/2000/svg"
 width="256.000000pt" height="256.000000pt" viewBox="0 0 256.000000 256.000000"
 preserveAspectRatio="xMidYMid meet">

<g transform="translate(0.000000,256.000000) scale(0.100000,-0.100000)"
fill="#000000" stroke="none">
<path d="M245 2431 c-54 -25 -92 -62 -115 -113 -19 -42 -20 -76 -20 -1038 0
-942 1 -997 19 -1035 10 -22 33 -55 51 -72 69 -67 10 -64 1115 -61 950 3 1002
4 1034 21 45 25 80 63 102 112 18 38 19 90 19 1032 0 672 -3 1001 -11 1020
-21 56 -61 102 -112 128 l-51 25 -995 0 c-946 0 -998 -1 -1036 -19z m925 -786
l0 -105 -265 0 -265 0 0 -90 0 -90 235 0 235 0 0 -105 0 -105 -235 0 -235 0 0
-170 0 -170 -120 0 -120 0 0 470 0 470 385 0 385 0 0 -105z m564 -177 l186
-283 0 283 0 282 120 0 120 0 0 -470 0 -470 -126 0 -125 0 -182 276 -182 277
-3 -277 -2 -276 -125 0 -125 0 0 470 0 470 129 0 129 0 186 -282z"/>
</g>
</svg>
